<?xml version="1.0" encoding="UTF-8"?> <svg xmlns="http://www.w3.org/2000/svg" id="Layer_1" viewBox="0 0 216 216"><defs><style>.cls-1{fill:#ed303d;}</style></defs><path class="cls-1" d="m111.28,37.96v-16.43h24.24s20.6,16.83,20.6,16.43h-44.83Zm-6.87,0h-44.83c0,.41,20.6-16.43,20.6-16.43h24.24v16.43Zm53.18,10.59l.18-10.95S145.39,7.07,108.77,1.69c0,0-31.95-.54-50.98,36.45l-.18,10.59-4.49,6.65h109.33l-4.85-6.82Z"></path><path class="cls-1" d="m92.3,32.7h6.87v-4.85s-5.47,2.02-6.87,4.85"></path><path class="cls-1" d="m123.53,32.7h-6.87v-4.85s5.47,2.02,6.87,4.85"></path><path class="cls-1" d="m203.88,60.15H12.12c-.45,0-.83,1.57-.83,3.49s.37,3.49.83,3.49h191.77c.45,0,.83-1.58.83-3.49s-.37-3.49-.83-3.49"></path><path class="cls-1" d="m38.66,72l-.18,15.8s.9,6.64,5.38,12.75c.18.54,16.16,31.6,16.16,31.6v8.98s0,4.67,3.41,4.67h18.67v6.29h9.51v7.9l31.42-4.85v-2.87h9.51v-7h18.49s4.49,1.61,4.31-5.93c-.36-.36,0-7.36,0-7.36l20.47-40.22v-19.39h-36.08l-5.92,1.62v9.88h2.69v7.36l10.77,1.62s4.67,1.08,4.13,5.39c.18.18-.54,4.49-3.95,5.03l-10.77,3.23-.18,22.8.72.9s7.54,0,7.54,5.03c0-.18.36,4.85-4.49,5.74h-66.06s-4.85-1.97-4.49-5.74c.18,0,.36-5.93,8.26-4.85.18.36.36-1.8.36-1.8l-11.85-2.51s-3.59-2.33-3.05-5.21c.18.72-.36-4.13,5.74-5.21l8.98-2.69.18-19.03-15.62-2.15s-3.95-1.97-3.41-5.75c.18.36-1.26-3.41,7-5.21-.36.36,15.08-3.77,15.08-3.77v-4.67l-42.73-.36Z"></path><polygon class="cls-1" points="86.69 72.63 86.69 75.95 99.34 72.72 86.69 72.63"></polygon><polygon class="cls-1" points="74.03 90.76 78.7 90.76 78.7 89.06 74.03 90.76"></polygon><polygon class="cls-1" points="95.84 84.39 128.69 84.39 128.69 75.77 95.84 84.39"></polygon><polygon class="cls-1" points="84.26 89.6 84.17 111.41 131.56 97.5 131.66 89.51 84.26 89.6"></polygon><polygon class="cls-1" points="131.56 130.72 131.66 108.9 84.26 122.82 84.17 130.8 131.56 130.72"></polygon><path class="cls-1" d="m139.91,134.4h-63.73c-.99,0-1.8.81-1.8,1.8s.81,1.8,1.8,1.8h63.73c.99,0,1.8-.81,1.8-1.8s-.81-1.8-1.8-1.8"></path><path class="cls-1" d="m146.21,96.83l-77.5,23.1c-.95.28-1.49,1.29-1.21,2.23.28.95,1.29,1.49,2.23,1.21l77.5-23.1c.95-.28,1.49-1.29,1.21-2.23-.28-.95-1.29-1.49-2.23-1.21"></path><path class="cls-1" d="m127.4,72.81h-14.28l-48.66,12.64c-.96.25-1.53,1.24-1.29,2.19.21.81.94,1.34,1.74,1.34.15,0,.3-.02.45-.06l62.04-16.12Z"></path><path class="cls-1" d="m130.35,157.43l-45.98,8.38c-.9.16-1.5,1.03-1.34,1.93.16.9,1.03,1.5,1.93,1.34l45.98-8.38c.9-.16,1.5-1.03,1.34-1.93-.16-.9-1.03-1.5-1.93-1.34"></path><path class="cls-1" d="m131.61,173.68l-45.98,8.38c-.9.16-1.5,1.03-1.34,1.93.16.9,1.03,1.5,1.93,1.34l45.98-8.38c.9-.16,1.5-1.03,1.34-1.93-.16-.9-1.03-1.5-1.93-1.35"></path><polygon class="cls-1" points="123.37 165.87 92.43 171.56 92.43 177.04 123.37 171.34 123.37 165.87"></polygon><path class="cls-1" d="m92.34,190.42v-2.51l30.88-5.57.09,8.17s-7.81,2.78-15.35,2.06c-.09.09-13.02-.18-15.62-2.16"></path><path class="cls-1" d="m80.49,182.16s-38.78,1.71-38.33,13.64c0,0-1.17,13.42,68.58,13.15,0,.13,61.26.13,60.86-14.55.27-.13.94-9.7-43.22-12.66.27.13.4,9.7.4,9.7,0,0-1.88,7.54-21,6.19-.54.54-23.29,1.35-20.73-8.62-.14-.13-7.05,1.75-6.55-6.87"></path></svg> 